M48
; DRILL file {KiCad 8.0.5} date 2025-10-09T21:51:24-0500
; FORMAT={-:-/ absolute / metric / decimal}
; #@! TF.CreationDate,2025-10-09T21:51:24-05:00
; #@! TF.GenerationSoftware,Kicad,Pcbnew,8.0.5
; #@! TF.FileFunction,Plated,1,2,PTH
FMAT,2
METRIC
; #@! TA.AperFunction,Plated,PTH,ComponentDrill
T1C0.700
; #@! TA.AperFunction,Plated,PTH,ComponentDrill
T2C0.800
; #@! TA.AperFunction,Plated,PTH,ComponentDrill
T3C1.000
; #@! TA.AperFunction,Plated,PTH,ComponentDrill
T4C1.100
; #@! TA.AperFunction,Plated,PTH,ComponentDrill
T5C1.300
%
G90
G05
T1
X208.377Y-78.0
X211.575Y-83.76
X211.575Y-88.84
X213.457Y-78.0
X214.0Y-46.5
X214.0Y-51.58
X214.0Y-55.46
X214.0Y-60.54
X216.96Y-75.0
X221.46Y-48.5
X221.46Y-57.0
X222.04Y-75.0
X225.377Y-77.5
X226.54Y-48.5
X226.54Y-57.0
X229.46Y-65.0
X230.457Y-77.5
X232.71Y-76.0
X234.54Y-65.0
X237.79Y-76.0
X238.71Y-65.0
X243.79Y-65.0
X248.42Y-65.0
X253.5Y-65.0
T2
X207.175Y-44.43
X207.175Y-46.97
X207.175Y-49.51
X207.175Y-52.05
X207.175Y-54.59
X207.175Y-57.13
X207.175Y-59.67
X207.175Y-62.21
X207.775Y-82.5
X207.775Y-85.04
X207.775Y-87.58
X207.775Y-90.12
X211.0Y-46.5
X211.0Y-51.5
X211.0Y-55.5
X211.0Y-60.5
X215.395Y-82.5
X215.395Y-85.04
X215.395Y-87.58
X215.395Y-90.12
X217.0Y-78.5
X217.335Y-44.43
X217.335Y-46.97
X217.335Y-49.51
X217.335Y-52.05
X217.335Y-54.59
X217.335Y-57.13
X217.335Y-59.67
X217.335Y-62.21
X218.695Y-72.0
X218.775Y-82.5
X218.775Y-85.04
X218.775Y-87.58
X218.775Y-90.12
X221.235Y-72.0
X222.0Y-78.5
X222.5Y-83.5
X222.5Y-88.5
X223.775Y-72.0
X226.395Y-82.5
X226.395Y-85.04
X226.395Y-87.58
X226.395Y-90.12
X229.775Y-82.5
X229.775Y-85.04
X229.775Y-87.58
X229.775Y-90.12
X231.115Y-44.47
X231.115Y-47.01
X231.115Y-49.55
X231.115Y-52.09
X231.115Y-54.63
X231.115Y-57.17
X231.115Y-59.71
X231.115Y-62.25
X232.75Y-78.75
X233.5Y-84.5
X233.5Y-89.5
X233.955Y-44.46
X233.955Y-47.0
X233.955Y-49.54
X233.955Y-52.08
X233.955Y-54.62
X233.955Y-57.16
X233.955Y-59.7
X233.955Y-62.24
X237.395Y-82.5
X237.395Y-85.04
X237.395Y-87.58
X237.395Y-90.12
X237.75Y-78.75
X240.5Y-90.25
X241.275Y-44.47
X241.275Y-47.01
X241.275Y-49.55
X241.275Y-52.09
X241.275Y-54.63
X241.275Y-57.17
X241.275Y-59.71
X241.275Y-62.25
X242.5Y-90.25
X244.115Y-44.46
X244.115Y-47.0
X244.115Y-49.54
X244.115Y-52.08
X244.115Y-54.62
X244.115Y-57.16
X244.115Y-59.7
X244.115Y-62.24
X247.5Y-45.96
X247.5Y-48.5
X247.5Y-51.04
X247.71Y-90.25
X250.25Y-90.25
X251.0Y-45.92
X251.0Y-48.46
X251.0Y-51.0
X252.79Y-90.25
X254.0Y-77.0
X254.0Y-79.0
X254.5Y-45.92
X254.5Y-48.46
X254.5Y-51.0
T3
X221.42Y-61.0
X221.46Y-45.0
X221.46Y-53.0
X223.96Y-61.0
X224.0Y-45.0
X224.0Y-53.0
X226.5Y-61.0
X226.54Y-45.0
X226.54Y-53.0
T4
X207.525Y-67.75
X207.525Y-72.25
X214.025Y-67.75
X214.025Y-72.25
X228.525Y-67.75
X228.525Y-72.25
X235.025Y-67.75
X235.025Y-72.25
X238.025Y-67.75
X238.025Y-72.25
X244.525Y-67.75
X244.525Y-72.25
X247.25Y-56.75
X247.25Y-61.25
X247.525Y-67.75
X247.525Y-72.25
X253.75Y-56.75
X253.75Y-61.25
X254.025Y-67.75
X254.025Y-72.25
T5
X218.975Y-65.2
X221.475Y-67.7
X223.975Y-65.2
M30
