G04 #@! TF.GenerationSoftware,KiCad,Pcbnew,8.0.5*
G04 #@! TF.CreationDate,2025-10-09T21:50:06-05:00*
G04 #@! TF.ProjectId,ELEC 240 Project,454c4543-2032-4343-9020-50726f6a6563,rev?*
G04 #@! TF.SameCoordinates,Original*
G04 #@! TF.FileFunction,Copper,L2,Bot*
G04 #@! TF.FilePolarity,Positive*
%FSLAX46Y46*%
G04 Gerber Fmt 4.6, Leading zero omitted, Abs format (unit mm)*
G04 Created by KiCad (PCBNEW 8.0.5) date 2025-10-09 21:50:06*
%MOMM*%
%LPD*%
G01*
G04 APERTURE LIST*
G04 #@! TA.AperFunction,ComponentPad*
%ADD10C,1.400000*%
G04 #@! TD*
G04 #@! TA.AperFunction,ComponentPad*
%ADD11O,1.400000X1.400000*%
G04 #@! TD*
G04 #@! TA.AperFunction,ComponentPad*
%ADD12R,1.600000X1.600000*%
G04 #@! TD*
G04 #@! TA.AperFunction,ComponentPad*
%ADD13O,1.600000X1.600000*%
G04 #@! TD*
G04 #@! TA.AperFunction,ComponentPad*
%ADD14C,1.600000*%
G04 #@! TD*
G04 #@! TA.AperFunction,ComponentPad*
%ADD15R,1.500000X1.500000*%
G04 #@! TD*
G04 #@! TA.AperFunction,ComponentPad*
%ADD16C,2.000000*%
G04 #@! TD*
G04 #@! TA.AperFunction,ComponentPad*
%ADD17R,1.700000X1.700000*%
G04 #@! TD*
G04 #@! TA.AperFunction,ComponentPad*
%ADD18O,1.700000X1.700000*%
G04 #@! TD*
G04 #@! TA.AperFunction,ComponentPad*
%ADD19C,2.340000*%
G04 #@! TD*
G04 #@! TA.AperFunction,ComponentPad*
%ADD20R,1.350000X1.350000*%
G04 #@! TD*
G04 #@! TA.AperFunction,ComponentPad*
%ADD21O,1.350000X1.350000*%
G04 #@! TD*
G04 #@! TA.AperFunction,SMDPad,CuDef*
%ADD22R,1.800000X3.200000*%
G04 #@! TD*
G04 #@! TA.AperFunction,Conductor*
%ADD23C,0.500000*%
G04 #@! TD*
G04 #@! TA.AperFunction,Conductor*
%ADD24C,0.400000*%
G04 #@! TD*
G04 #@! TA.AperFunction,Conductor*
%ADD25C,0.254000*%
G04 #@! TD*
G04 APERTURE END LIST*
D10*
X243790000Y-65000000D03*
D11*
X238710000Y-65000000D03*
D12*
X229775000Y-82500000D03*
D13*
X229775000Y-85040000D03*
X229775000Y-87580000D03*
X229775000Y-90120000D03*
X237395000Y-90120000D03*
X237395000Y-87580000D03*
X237395000Y-85040000D03*
X237395000Y-82500000D03*
D14*
X217000000Y-78500000D03*
X222000000Y-78500000D03*
X254500000Y-45920000D03*
X254500000Y-51000000D03*
D15*
X254500000Y-48460000D03*
X221235000Y-72000000D03*
D14*
X223775000Y-72000000D03*
X218695000Y-72000000D03*
D16*
X238025000Y-67750000D03*
X244525000Y-67750000D03*
X238025000Y-72250000D03*
X244525000Y-72250000D03*
D12*
X231115000Y-44470000D03*
D13*
X231115000Y-47010000D03*
X231115000Y-49550000D03*
X231115000Y-52090000D03*
X231115000Y-54630000D03*
X231115000Y-57170000D03*
X231115000Y-59710000D03*
X231115000Y-62250000D03*
X241275000Y-62250000D03*
X241275000Y-59710000D03*
X241275000Y-57170000D03*
X241275000Y-54630000D03*
X241275000Y-52090000D03*
X241275000Y-49550000D03*
X241275000Y-47010000D03*
X241275000Y-44470000D03*
D16*
X228525000Y-67750000D03*
X235025000Y-67750000D03*
X228525000Y-72250000D03*
X235025000Y-72250000D03*
D15*
X247500000Y-48500000D03*
D14*
X247500000Y-51040000D03*
X247500000Y-45960000D03*
D17*
X221460000Y-53000000D03*
D18*
X224000000Y-53000000D03*
X226540000Y-53000000D03*
D15*
X251000000Y-48460000D03*
D14*
X251000000Y-51000000D03*
X251000000Y-45920000D03*
D10*
X221460000Y-48500000D03*
D11*
X226540000Y-48500000D03*
D16*
X207525000Y-67750000D03*
X214025000Y-67750000D03*
X207525000Y-72250000D03*
X214025000Y-72250000D03*
D17*
X221420000Y-61000000D03*
D18*
X223960000Y-61000000D03*
X226500000Y-61000000D03*
D16*
X247250000Y-56750000D03*
X253750000Y-56750000D03*
X247250000Y-61250000D03*
X253750000Y-61250000D03*
D12*
X207775000Y-82500000D03*
D13*
X207775000Y-85040000D03*
X207775000Y-87580000D03*
X207775000Y-90120000D03*
X215395000Y-90120000D03*
X215395000Y-87580000D03*
X215395000Y-85040000D03*
X215395000Y-82500000D03*
D19*
X223975000Y-65200000D03*
X221475000Y-67700000D03*
X218975000Y-65200000D03*
D17*
X221460000Y-45000000D03*
D18*
X224000000Y-45000000D03*
X226540000Y-45000000D03*
D10*
X216960000Y-75000000D03*
D11*
X222040000Y-75000000D03*
D10*
X213457183Y-78000000D03*
D11*
X208377183Y-78000000D03*
D16*
X247525000Y-67750000D03*
X254025000Y-67750000D03*
X247525000Y-72250000D03*
X254025000Y-72250000D03*
D10*
X221460000Y-57000000D03*
D11*
X226540000Y-57000000D03*
D14*
X237750000Y-78750000D03*
X232750000Y-78750000D03*
D12*
X207175000Y-44430000D03*
D13*
X207175000Y-46970000D03*
X207175000Y-49510000D03*
X207175000Y-52050000D03*
X207175000Y-54590000D03*
X207175000Y-57130000D03*
X207175000Y-59670000D03*
X207175000Y-62210000D03*
X217335000Y-62210000D03*
X217335000Y-59670000D03*
X217335000Y-57130000D03*
X217335000Y-54590000D03*
X217335000Y-52050000D03*
X217335000Y-49510000D03*
X217335000Y-46970000D03*
X217335000Y-44430000D03*
D10*
X225377183Y-77500000D03*
D11*
X230457183Y-77500000D03*
D15*
X250250000Y-90250000D03*
D14*
X247710000Y-90250000D03*
X252790000Y-90250000D03*
D12*
X218775000Y-82500000D03*
D13*
X218775000Y-85040000D03*
X218775000Y-87580000D03*
X218775000Y-90120000D03*
X226395000Y-90120000D03*
X226395000Y-87580000D03*
X226395000Y-85040000D03*
X226395000Y-82500000D03*
D10*
X229460000Y-65000000D03*
D11*
X234540000Y-65000000D03*
D10*
X232710000Y-76000000D03*
D11*
X237790000Y-76000000D03*
D20*
X254000000Y-77000000D03*
D21*
X254000000Y-79000000D03*
D10*
X248420000Y-65000000D03*
D11*
X253500000Y-65000000D03*
D20*
X240500000Y-90250000D03*
D21*
X242500000Y-90250000D03*
D10*
X214000000Y-60540000D03*
D11*
X214000000Y-55460000D03*
D14*
X222500000Y-83500000D03*
X222500000Y-88500000D03*
X233500000Y-84500000D03*
X233500000Y-89500000D03*
X211000000Y-60500000D03*
X211000000Y-55500000D03*
D22*
X251700000Y-77400000D03*
X240300000Y-77400000D03*
X240300000Y-86100000D03*
X251700000Y-86100000D03*
D14*
X211000000Y-51500000D03*
X211000000Y-46500000D03*
D12*
X244115000Y-44460000D03*
D13*
X244115000Y-47000000D03*
X244115000Y-49540000D03*
X244115000Y-52080000D03*
X244115000Y-54620000D03*
X244115000Y-57160000D03*
X244115000Y-59700000D03*
X244115000Y-62240000D03*
X233955000Y-62240000D03*
X233955000Y-59700000D03*
X233955000Y-57160000D03*
X233955000Y-54620000D03*
X233955000Y-52080000D03*
X233955000Y-49540000D03*
X233955000Y-47000000D03*
X233955000Y-44460000D03*
D10*
X211575000Y-83760000D03*
D11*
X211575000Y-88840000D03*
D10*
X214000000Y-46500000D03*
D11*
X214000000Y-51580000D03*
D23*
X238790000Y-75000000D02*
X237790000Y-76000000D01*
X250250000Y-83950000D02*
X241300000Y-75000000D01*
X250250000Y-90250000D02*
X250250000Y-83950000D01*
X241300000Y-75000000D02*
X238790000Y-75000000D01*
D24*
X232711000Y-43216000D02*
X233955000Y-44460000D01*
X217335000Y-44430000D02*
X218549000Y-43216000D01*
X218549000Y-43216000D02*
X232711000Y-43216000D01*
D25*
X244525000Y-65735000D02*
X243790000Y-65000000D01*
X244525000Y-67750000D02*
X244525000Y-65735000D01*
D23*
X240502767Y-44470000D02*
X241275000Y-44470000D01*
X240492767Y-44460000D02*
X240502767Y-44470000D01*
X233955000Y-44460000D02*
X240492767Y-44460000D01*
X228275001Y-81000000D02*
X229386092Y-82111091D01*
X225000000Y-81000000D02*
X228275001Y-81000000D01*
X222500000Y-83500000D02*
X225000000Y-81000000D01*
D25*
X234003813Y-83319000D02*
X237395000Y-86710187D01*
X237395000Y-86710187D02*
X237395000Y-87580000D01*
X231496000Y-83319000D02*
X234003813Y-83319000D01*
X229775000Y-85040000D02*
X231496000Y-83319000D01*
X207525000Y-72250000D02*
X214025000Y-72250000D01*
X249909000Y-47369000D02*
X251000000Y-48460000D01*
X242500000Y-46944813D02*
X243625813Y-45819000D01*
X245688813Y-45819000D02*
X247238813Y-47369000D01*
X242500000Y-47455187D02*
X242500000Y-46944813D01*
X243625813Y-45819000D02*
X245688813Y-45819000D01*
X240785813Y-48191000D02*
X241764187Y-48191000D01*
X247238813Y-47369000D02*
X249909000Y-47369000D01*
X239436813Y-49540000D02*
X240785813Y-48191000D01*
X241764187Y-48191000D02*
X242500000Y-47455187D01*
X233955000Y-49540000D02*
X239436813Y-49540000D01*
X242955187Y-62240000D02*
X244115000Y-62240000D01*
X240195187Y-65000000D02*
X242955187Y-62240000D01*
X238710000Y-65000000D02*
X240195187Y-65000000D01*
D23*
X222000000Y-79500000D02*
X222000000Y-78500000D01*
X219000000Y-82500000D02*
X222000000Y-79500000D01*
X218775000Y-78430865D02*
X218775000Y-82500000D01*
X217540135Y-77196000D02*
X218775000Y-78430865D01*
X216459865Y-77196000D02*
X217540135Y-77196000D01*
X213583000Y-80072865D02*
X216459865Y-77196000D01*
X209670000Y-88830000D02*
X213583000Y-84917000D01*
X213583000Y-84917000D02*
X213583000Y-80072865D01*
X209670000Y-90069135D02*
X209670000Y-88830000D01*
X206471000Y-90660135D02*
X207310865Y-91500000D01*
X206471000Y-83804000D02*
X206471000Y-90660135D01*
X207310865Y-91500000D02*
X208239135Y-91500000D01*
X208239135Y-91500000D02*
X209670000Y-90069135D01*
X207775000Y-82500000D02*
X206471000Y-83804000D01*
D25*
X253329000Y-49631000D02*
X254500000Y-48460000D01*
X242644000Y-48181000D02*
X244819000Y-48181000D01*
X244819000Y-48181000D02*
X246269000Y-49631000D01*
X241275000Y-49550000D02*
X242644000Y-48181000D01*
X246269000Y-49631000D02*
X253329000Y-49631000D01*
X242446000Y-60881000D02*
X241275000Y-59710000D01*
X246881000Y-60881000D02*
X242446000Y-60881000D01*
X247250000Y-61250000D02*
X246881000Y-60881000D01*
X253750000Y-61250000D02*
X247250000Y-61250000D01*
X253750000Y-64750000D02*
X253500000Y-65000000D01*
X253750000Y-61250000D02*
X253750000Y-64750000D01*
D23*
X244115000Y-63615000D02*
X244115000Y-62240000D01*
X246746000Y-66246000D02*
X244115000Y-63615000D01*
X248246000Y-66246000D02*
X246746000Y-66246000D01*
X249500000Y-67500000D02*
X248246000Y-66246000D01*
X249500000Y-79000000D02*
X249500000Y-67500000D01*
X242500000Y-91000000D02*
X242500000Y-90250000D01*
X241500000Y-92000000D02*
X242500000Y-91000000D01*
X236000000Y-92000000D02*
X241500000Y-92000000D01*
X233500000Y-89500000D02*
X236000000Y-92000000D01*
D25*
X220500000Y-75000000D02*
X216960000Y-75000000D01*
X216960000Y-75000000D02*
X216960000Y-74189655D01*
D23*
X238710000Y-56835000D02*
X238710000Y-65000000D01*
X233955000Y-52080000D02*
X238710000Y-56835000D01*
D25*
X227621000Y-46081000D02*
X227621000Y-51919000D01*
X227621000Y-51919000D02*
X226540000Y-53000000D01*
X226540000Y-45000000D02*
X227621000Y-46081000D01*
X224960000Y-48500000D02*
X226540000Y-48500000D01*
X221460000Y-45000000D02*
X224960000Y-48500000D01*
X209967418Y-74881000D02*
X214938602Y-74881000D01*
X207000000Y-79000000D02*
X207000000Y-77848418D01*
X207000000Y-77848418D02*
X209967418Y-74881000D01*
X208956000Y-80956000D02*
X207000000Y-79000000D01*
X214938602Y-74881000D02*
X217819602Y-72000000D01*
X208956000Y-86399000D02*
X208956000Y-80956000D01*
X217819602Y-72000000D02*
X218695000Y-72000000D01*
X207775000Y-87580000D02*
X208956000Y-86399000D01*
X217968655Y-73181000D02*
X216960000Y-74189655D01*
X219184187Y-73181000D02*
X217968655Y-73181000D01*
X219876000Y-72489187D02*
X219184187Y-73181000D01*
X219876000Y-66492446D02*
X219876000Y-72489187D01*
X221000000Y-65368446D02*
X219876000Y-66492446D01*
X218720813Y-59779187D02*
X218720813Y-61720813D01*
X221000000Y-64000000D02*
X221000000Y-65368446D01*
X219000000Y-59500000D02*
X218720813Y-59779187D01*
X219000000Y-59460000D02*
X219000000Y-59500000D01*
X218720813Y-61720813D02*
X221000000Y-64000000D01*
X221460000Y-57000000D02*
X219000000Y-59460000D01*
X223029949Y-75000000D02*
X222040000Y-75000000D01*
X225000000Y-68418446D02*
X225000000Y-73029949D01*
X225000000Y-73029949D02*
X223029949Y-75000000D01*
X222424000Y-62004000D02*
X222424000Y-65842446D01*
X221420000Y-61000000D02*
X222424000Y-62004000D01*
X224081000Y-78581000D02*
X220500000Y-75000000D01*
X230724948Y-81319000D02*
X227986948Y-78581000D01*
X227986948Y-78581000D02*
X224081000Y-78581000D01*
X237395000Y-85040000D02*
X233674000Y-81319000D01*
X233674000Y-81319000D02*
X230724948Y-81319000D01*
X255299999Y-66475001D02*
X254025000Y-67750000D01*
X255299999Y-51799999D02*
X255299999Y-66475001D01*
X254500000Y-51000000D02*
X255299999Y-51799999D01*
X244406000Y-70869000D02*
X247525000Y-67750000D01*
X235329000Y-70869000D02*
X244406000Y-70869000D01*
X229460000Y-65000000D02*
X235329000Y-70869000D01*
X223855000Y-85040000D02*
X218775000Y-85040000D01*
X226395000Y-87580000D02*
X223855000Y-85040000D01*
X229285813Y-86399000D02*
X231601000Y-86399000D01*
X231601000Y-86399000D02*
X233500000Y-84500000D01*
X226395000Y-89289813D02*
X229285813Y-86399000D01*
X226395000Y-90120000D02*
X226395000Y-89289813D01*
X222239000Y-88761000D02*
X216754000Y-88761000D01*
X222500000Y-88500000D02*
X222239000Y-88761000D01*
X216754000Y-88761000D02*
X215395000Y-90120000D01*
X214214000Y-83859000D02*
X215395000Y-85040000D01*
X217000000Y-78500000D02*
X214214000Y-81286000D01*
X214214000Y-81286000D02*
X214214000Y-83859000D01*
D23*
X215750000Y-73177233D02*
X215750000Y-69475000D01*
X215750000Y-69475000D02*
X214025000Y-67750000D01*
X214677233Y-74250000D02*
X215750000Y-73177233D01*
X206250000Y-76250000D02*
X208250000Y-74250000D01*
X206250000Y-80975000D02*
X206250000Y-76250000D01*
X208250000Y-74250000D02*
X214677233Y-74250000D01*
X207775000Y-82500000D02*
X206250000Y-80975000D01*
D25*
X229467234Y-77500000D02*
X230457183Y-77500000D01*
X225992000Y-74024766D02*
X229467234Y-77500000D01*
X225992000Y-67217000D02*
X225992000Y-74024766D01*
X223975000Y-65200000D02*
X225992000Y-67217000D01*
X230056419Y-76419000D02*
X226500000Y-72862581D01*
X226500000Y-72862581D02*
X226500000Y-61000000D01*
X230904948Y-76419000D02*
X230056419Y-76419000D01*
X231538183Y-77052235D02*
X230904948Y-76419000D01*
X231538183Y-79208370D02*
X231538183Y-77052235D01*
X232329813Y-80000000D02*
X231538183Y-79208370D01*
X237329813Y-80000000D02*
X232329813Y-80000000D01*
X239019000Y-81689187D02*
X237329813Y-80000000D01*
X239019000Y-85956000D02*
X239019000Y-81689187D01*
X237395000Y-87580000D02*
X239019000Y-85956000D01*
X227487766Y-59476531D02*
X224000000Y-55988765D01*
X224000000Y-55988765D02*
X224000000Y-53000000D01*
X227487766Y-59487766D02*
X227487766Y-59476531D01*
X232606000Y-60891000D02*
X228891000Y-60891000D01*
X228891000Y-60891000D02*
X227487766Y-59487766D01*
X233955000Y-62240000D02*
X232606000Y-60891000D01*
X248207000Y-43127000D02*
X251000000Y-45920000D01*
X242500000Y-43713000D02*
X243086000Y-43127000D01*
X242500000Y-44934000D02*
X242500000Y-43713000D01*
X243086000Y-43127000D02*
X248207000Y-43127000D01*
X241733237Y-45700763D02*
X242500000Y-44934000D01*
X234623763Y-48191000D02*
X237114000Y-45700763D01*
X230309001Y-48191000D02*
X234623763Y-48191000D01*
X229934000Y-48566001D02*
X230309001Y-48191000D01*
X237114000Y-45700763D02*
X241733237Y-45700763D01*
X229934000Y-51566000D02*
X229934000Y-48566001D01*
X227269000Y-54231000D02*
X229934000Y-51566000D01*
X224799103Y-53000000D02*
X226030103Y-54231000D01*
X226030103Y-54231000D02*
X227269000Y-54231000D01*
X224000000Y-53000000D02*
X224799103Y-53000000D01*
X218767000Y-53231000D02*
X220498000Y-51500000D01*
X225040000Y-51500000D02*
X226540000Y-53000000D01*
X212731000Y-53231000D02*
X218767000Y-53231000D01*
X220498000Y-51500000D02*
X225040000Y-51500000D01*
X211000000Y-51500000D02*
X212731000Y-53231000D01*
X220000000Y-48515187D02*
X220000000Y-48500000D01*
X220000000Y-48500000D02*
X221460000Y-48500000D01*
X217646187Y-50869000D02*
X220000000Y-48515187D01*
X214711000Y-50869000D02*
X217646187Y-50869000D01*
X214000000Y-51580000D02*
X214711000Y-50869000D01*
D23*
X254025000Y-70605000D02*
X254025000Y-72250000D01*
X248420000Y-65000000D02*
X254025000Y-70605000D01*
X237500000Y-74000000D02*
X244500000Y-74000000D01*
X244500000Y-74000000D02*
X249500000Y-79000000D01*
X232750000Y-78750000D02*
X237500000Y-74000000D01*
X252790000Y-87190000D02*
X251700000Y-86100000D01*
X252790000Y-90250000D02*
X252790000Y-87190000D01*
X253325000Y-79675000D02*
X250175000Y-79675000D01*
X250175000Y-79675000D02*
X249500000Y-79000000D01*
X254000000Y-79000000D02*
X253325000Y-79675000D01*
X254025000Y-72250000D02*
X254025000Y-76975000D01*
X211575000Y-82075000D02*
X211575000Y-83760000D01*
X208377183Y-78877183D02*
X211575000Y-82075000D01*
X208377183Y-78000000D02*
X208377183Y-78877183D01*
X254025000Y-76975000D02*
X254000000Y-77000000D01*
X241265000Y-52080000D02*
X241275000Y-52090000D01*
X242500000Y-90250000D02*
X242500000Y-88300000D01*
X207175000Y-62210000D02*
X207175000Y-67400000D01*
X240300000Y-86100000D02*
X240300000Y-86800000D01*
X207525000Y-62560000D02*
X207175000Y-62210000D01*
X218775000Y-82500000D02*
X221500000Y-82500000D01*
X247250000Y-56750000D02*
X253750000Y-56750000D01*
X207175000Y-62210000D02*
X211000000Y-58385000D01*
X214025000Y-67750000D02*
X207525000Y-67750000D01*
X233955000Y-52080000D02*
X241265000Y-52080000D01*
X242500000Y-88300000D02*
X240300000Y-86100000D01*
X221500000Y-82500000D02*
X222500000Y-83500000D01*
X211000000Y-58385000D02*
X211000000Y-55500000D01*
X207175000Y-67400000D02*
X207525000Y-67750000D01*
X216995000Y-54250000D02*
X217335000Y-54590000D01*
X241275000Y-55000000D02*
X241275000Y-54630000D01*
D25*
X222424000Y-65842446D02*
X225000000Y-68418446D01*
X218546000Y-55919000D02*
X217335000Y-57130000D01*
X230625813Y-63431000D02*
X227731000Y-60536187D01*
X227731000Y-60536187D02*
X227731000Y-60490103D01*
X235136000Y-62729187D02*
X234434187Y-63431000D01*
X223159897Y-55919000D02*
X218546000Y-55919000D01*
X227731000Y-60490103D02*
X223159897Y-55919000D01*
X235136000Y-58341000D02*
X235136000Y-62729187D01*
X233955000Y-57160000D02*
X235136000Y-58341000D01*
X234434187Y-63431000D02*
X230625813Y-63431000D01*
M02*
