G04 #@! TF.GenerationSoftware,KiCad,Pcbnew,8.0.5*
G04 #@! TF.CreationDate,2025-10-09T21:50:06-05:00*
G04 #@! TF.ProjectId,ELEC 240 Project,454c4543-2032-4343-9020-50726f6a6563,rev?*
G04 #@! TF.SameCoordinates,Original*
G04 #@! TF.FileFunction,Legend,Bot*
G04 #@! TF.FilePolarity,Positive*
%FSLAX46Y46*%
G04 Gerber Fmt 4.6, Leading zero omitted, Abs format (unit mm)*
G04 Created by KiCad (PCBNEW 8.0.5) date 2025-10-09 21:50:06*
%MOMM*%
%LPD*%
G01*
G04 APERTURE LIST*
G04 Aperture macros list*
%AMRoundRect*
0 Rectangle with rounded corners*
0 $1 Rounding radius*
0 $2 $3 $4 $5 $6 $7 $8 $9 X,Y pos of 4 corners*
0 Add a 4 corners polygon primitive as box body*
4,1,4,$2,$3,$4,$5,$6,$7,$8,$9,$2,$3,0*
0 Add four circle primitives for the rounded corners*
1,1,$1+$1,$2,$3*
1,1,$1+$1,$4,$5*
1,1,$1+$1,$6,$7*
1,1,$1+$1,$8,$9*
0 Add four rect primitives between the rounded corners*
20,1,$1+$1,$2,$3,$4,$5,0*
20,1,$1+$1,$4,$5,$6,$7,0*
20,1,$1+$1,$6,$7,$8,$9,0*
20,1,$1+$1,$8,$9,$2,$3,0*%
G04 Aperture macros list end*
%ADD10C,0.150000*%
%ADD11C,0.120000*%
%ADD12C,0.127000*%
%ADD13C,1.400000*%
%ADD14O,1.400000X1.400000*%
%ADD15R,1.600000X1.600000*%
%ADD16O,1.600000X1.600000*%
%ADD17C,1.600000*%
%ADD18R,1.500000X1.500000*%
%ADD19C,2.000000*%
%ADD20R,1.700000X1.700000*%
%ADD21O,1.700000X1.700000*%
%ADD22C,2.340000*%
%ADD23R,1.350000X1.350000*%
%ADD24O,1.350000X1.350000*%
%ADD25RoundRect,0.102000X0.900000X1.600000X-0.900000X1.600000X-0.900000X-1.600000X0.900000X-1.600000X0*%
G04 APERTURE END LIST*
D10*
X216374819Y-57357142D02*
X215898628Y-57023809D01*
X216374819Y-56785714D02*
X215374819Y-56785714D01*
X215374819Y-56785714D02*
X215374819Y-57166666D01*
X215374819Y-57166666D02*
X215422438Y-57261904D01*
X215422438Y-57261904D02*
X215470057Y-57309523D01*
X215470057Y-57309523D02*
X215565295Y-57357142D01*
X215565295Y-57357142D02*
X215708152Y-57357142D01*
X215708152Y-57357142D02*
X215803390Y-57309523D01*
X215803390Y-57309523D02*
X215851009Y-57261904D01*
X215851009Y-57261904D02*
X215898628Y-57166666D01*
X215898628Y-57166666D02*
X215898628Y-56785714D01*
X216374819Y-58309523D02*
X216374819Y-57738095D01*
X216374819Y-58023809D02*
X215374819Y-58023809D01*
X215374819Y-58023809D02*
X215517676Y-57928571D01*
X215517676Y-57928571D02*
X215612914Y-57833333D01*
X215612914Y-57833333D02*
X215660533Y-57738095D01*
X215374819Y-58642857D02*
X215374819Y-59261904D01*
X215374819Y-59261904D02*
X215755771Y-58928571D01*
X215755771Y-58928571D02*
X215755771Y-59071428D01*
X215755771Y-59071428D02*
X215803390Y-59166666D01*
X215803390Y-59166666D02*
X215851009Y-59214285D01*
X215851009Y-59214285D02*
X215946247Y-59261904D01*
X215946247Y-59261904D02*
X216184342Y-59261904D01*
X216184342Y-59261904D02*
X216279580Y-59214285D01*
X216279580Y-59214285D02*
X216327200Y-59166666D01*
X216327200Y-59166666D02*
X216374819Y-59071428D01*
X216374819Y-59071428D02*
X216374819Y-58785714D01*
X216374819Y-58785714D02*
X216327200Y-58690476D01*
X216327200Y-58690476D02*
X216279580Y-58642857D01*
X220659580Y-85833333D02*
X220707200Y-85785714D01*
X220707200Y-85785714D02*
X220754819Y-85642857D01*
X220754819Y-85642857D02*
X220754819Y-85547619D01*
X220754819Y-85547619D02*
X220707200Y-85404762D01*
X220707200Y-85404762D02*
X220611961Y-85309524D01*
X220611961Y-85309524D02*
X220516723Y-85261905D01*
X220516723Y-85261905D02*
X220326247Y-85214286D01*
X220326247Y-85214286D02*
X220183390Y-85214286D01*
X220183390Y-85214286D02*
X219992914Y-85261905D01*
X219992914Y-85261905D02*
X219897676Y-85309524D01*
X219897676Y-85309524D02*
X219802438Y-85404762D01*
X219802438Y-85404762D02*
X219754819Y-85547619D01*
X219754819Y-85547619D02*
X219754819Y-85642857D01*
X219754819Y-85642857D02*
X219802438Y-85785714D01*
X219802438Y-85785714D02*
X219850057Y-85833333D01*
X220754819Y-86785714D02*
X220754819Y-86214286D01*
X220754819Y-86500000D02*
X219754819Y-86500000D01*
X219754819Y-86500000D02*
X219897676Y-86404762D01*
X219897676Y-86404762D02*
X219992914Y-86309524D01*
X219992914Y-86309524D02*
X220040533Y-86214286D01*
X231659580Y-86833333D02*
X231707200Y-86785714D01*
X231707200Y-86785714D02*
X231754819Y-86642857D01*
X231754819Y-86642857D02*
X231754819Y-86547619D01*
X231754819Y-86547619D02*
X231707200Y-86404762D01*
X231707200Y-86404762D02*
X231611961Y-86309524D01*
X231611961Y-86309524D02*
X231516723Y-86261905D01*
X231516723Y-86261905D02*
X231326247Y-86214286D01*
X231326247Y-86214286D02*
X231183390Y-86214286D01*
X231183390Y-86214286D02*
X230992914Y-86261905D01*
X230992914Y-86261905D02*
X230897676Y-86309524D01*
X230897676Y-86309524D02*
X230802438Y-86404762D01*
X230802438Y-86404762D02*
X230754819Y-86547619D01*
X230754819Y-86547619D02*
X230754819Y-86642857D01*
X230754819Y-86642857D02*
X230802438Y-86785714D01*
X230802438Y-86785714D02*
X230850057Y-86833333D01*
X230754819Y-87166667D02*
X230754819Y-87785714D01*
X230754819Y-87785714D02*
X231135771Y-87452381D01*
X231135771Y-87452381D02*
X231135771Y-87595238D01*
X231135771Y-87595238D02*
X231183390Y-87690476D01*
X231183390Y-87690476D02*
X231231009Y-87738095D01*
X231231009Y-87738095D02*
X231326247Y-87785714D01*
X231326247Y-87785714D02*
X231564342Y-87785714D01*
X231564342Y-87785714D02*
X231659580Y-87738095D01*
X231659580Y-87738095D02*
X231707200Y-87690476D01*
X231707200Y-87690476D02*
X231754819Y-87595238D01*
X231754819Y-87595238D02*
X231754819Y-87309524D01*
X231754819Y-87309524D02*
X231707200Y-87214286D01*
X231707200Y-87214286D02*
X231659580Y-87166667D01*
X213559580Y-57833333D02*
X213607200Y-57785714D01*
X213607200Y-57785714D02*
X213654819Y-57642857D01*
X213654819Y-57642857D02*
X213654819Y-57547619D01*
X213654819Y-57547619D02*
X213607200Y-57404762D01*
X213607200Y-57404762D02*
X213511961Y-57309524D01*
X213511961Y-57309524D02*
X213416723Y-57261905D01*
X213416723Y-57261905D02*
X213226247Y-57214286D01*
X213226247Y-57214286D02*
X213083390Y-57214286D01*
X213083390Y-57214286D02*
X212892914Y-57261905D01*
X212892914Y-57261905D02*
X212797676Y-57309524D01*
X212797676Y-57309524D02*
X212702438Y-57404762D01*
X212702438Y-57404762D02*
X212654819Y-57547619D01*
X212654819Y-57547619D02*
X212654819Y-57642857D01*
X212654819Y-57642857D02*
X212702438Y-57785714D01*
X212702438Y-57785714D02*
X212750057Y-57833333D01*
X212988152Y-58690476D02*
X213654819Y-58690476D01*
X212607200Y-58452381D02*
X213321485Y-58214286D01*
X213321485Y-58214286D02*
X213321485Y-58833333D01*
X249836244Y-74550360D02*
X250314726Y-74550360D01*
X250314726Y-74550360D02*
X250314726Y-73545549D01*
X249549156Y-74502512D02*
X249405612Y-74550360D01*
X249405612Y-74550360D02*
X249166371Y-74550360D01*
X249166371Y-74550360D02*
X249070675Y-74502512D01*
X249070675Y-74502512D02*
X249022826Y-74454663D01*
X249022826Y-74454663D02*
X248974978Y-74358967D01*
X248974978Y-74358967D02*
X248974978Y-74263271D01*
X248974978Y-74263271D02*
X249022826Y-74167575D01*
X249022826Y-74167575D02*
X249070675Y-74119726D01*
X249070675Y-74119726D02*
X249166371Y-74071878D01*
X249166371Y-74071878D02*
X249357763Y-74024030D01*
X249357763Y-74024030D02*
X249453460Y-73976182D01*
X249453460Y-73976182D02*
X249501308Y-73928334D01*
X249501308Y-73928334D02*
X249549156Y-73832638D01*
X249549156Y-73832638D02*
X249549156Y-73736941D01*
X249549156Y-73736941D02*
X249501308Y-73641245D01*
X249501308Y-73641245D02*
X249453460Y-73593397D01*
X249453460Y-73593397D02*
X249357763Y-73545549D01*
X249357763Y-73545549D02*
X249118523Y-73545549D01*
X249118523Y-73545549D02*
X248974978Y-73593397D01*
X248592193Y-73641245D02*
X248544345Y-73593397D01*
X248544345Y-73593397D02*
X248448649Y-73545549D01*
X248448649Y-73545549D02*
X248209408Y-73545549D01*
X248209408Y-73545549D02*
X248113712Y-73593397D01*
X248113712Y-73593397D02*
X248065863Y-73641245D01*
X248065863Y-73641245D02*
X248018015Y-73736941D01*
X248018015Y-73736941D02*
X248018015Y-73832638D01*
X248018015Y-73832638D02*
X248065863Y-73976182D01*
X248065863Y-73976182D02*
X248640041Y-74550360D01*
X248640041Y-74550360D02*
X248018015Y-74550360D01*
X213559580Y-48833333D02*
X213607200Y-48785714D01*
X213607200Y-48785714D02*
X213654819Y-48642857D01*
X213654819Y-48642857D02*
X213654819Y-48547619D01*
X213654819Y-48547619D02*
X213607200Y-48404762D01*
X213607200Y-48404762D02*
X213511961Y-48309524D01*
X213511961Y-48309524D02*
X213416723Y-48261905D01*
X213416723Y-48261905D02*
X213226247Y-48214286D01*
X213226247Y-48214286D02*
X213083390Y-48214286D01*
X213083390Y-48214286D02*
X212892914Y-48261905D01*
X212892914Y-48261905D02*
X212797676Y-48309524D01*
X212797676Y-48309524D02*
X212702438Y-48404762D01*
X212702438Y-48404762D02*
X212654819Y-48547619D01*
X212654819Y-48547619D02*
X212654819Y-48642857D01*
X212654819Y-48642857D02*
X212702438Y-48785714D01*
X212702438Y-48785714D02*
X212750057Y-48833333D01*
X212654819Y-49690476D02*
X212654819Y-49500000D01*
X212654819Y-49500000D02*
X212702438Y-49404762D01*
X212702438Y-49404762D02*
X212750057Y-49357143D01*
X212750057Y-49357143D02*
X212892914Y-49261905D01*
X212892914Y-49261905D02*
X213083390Y-49214286D01*
X213083390Y-49214286D02*
X213464342Y-49214286D01*
X213464342Y-49214286D02*
X213559580Y-49261905D01*
X213559580Y-49261905D02*
X213607200Y-49309524D01*
X213607200Y-49309524D02*
X213654819Y-49404762D01*
X213654819Y-49404762D02*
X213654819Y-49595238D01*
X213654819Y-49595238D02*
X213607200Y-49690476D01*
X213607200Y-49690476D02*
X213559580Y-49738095D01*
X213559580Y-49738095D02*
X213464342Y-49785714D01*
X213464342Y-49785714D02*
X213226247Y-49785714D01*
X213226247Y-49785714D02*
X213131009Y-49738095D01*
X213131009Y-49738095D02*
X213083390Y-49690476D01*
X213083390Y-49690476D02*
X213035771Y-49595238D01*
X213035771Y-49595238D02*
X213035771Y-49404762D01*
X213035771Y-49404762D02*
X213083390Y-49309524D01*
X213083390Y-49309524D02*
X213131009Y-49261905D01*
X213131009Y-49261905D02*
X213226247Y-49214286D01*
X239796904Y-41584819D02*
X239796904Y-42394342D01*
X239796904Y-42394342D02*
X239749285Y-42489580D01*
X239749285Y-42489580D02*
X239701666Y-42537200D01*
X239701666Y-42537200D02*
X239606428Y-42584819D01*
X239606428Y-42584819D02*
X239415952Y-42584819D01*
X239415952Y-42584819D02*
X239320714Y-42537200D01*
X239320714Y-42537200D02*
X239273095Y-42489580D01*
X239273095Y-42489580D02*
X239225476Y-42394342D01*
X239225476Y-42394342D02*
X239225476Y-41584819D01*
X238320714Y-41918152D02*
X238320714Y-42584819D01*
X238558809Y-41537200D02*
X238796904Y-42251485D01*
X238796904Y-42251485D02*
X238177857Y-42251485D01*
X210109819Y-86133333D02*
X209633628Y-85800000D01*
X210109819Y-85561905D02*
X209109819Y-85561905D01*
X209109819Y-85561905D02*
X209109819Y-85942857D01*
X209109819Y-85942857D02*
X209157438Y-86038095D01*
X209157438Y-86038095D02*
X209205057Y-86085714D01*
X209205057Y-86085714D02*
X209300295Y-86133333D01*
X209300295Y-86133333D02*
X209443152Y-86133333D01*
X209443152Y-86133333D02*
X209538390Y-86085714D01*
X209538390Y-86085714D02*
X209586009Y-86038095D01*
X209586009Y-86038095D02*
X209633628Y-85942857D01*
X209633628Y-85942857D02*
X209633628Y-85561905D01*
X210109819Y-87085714D02*
X210109819Y-86514286D01*
X210109819Y-86800000D02*
X209109819Y-86800000D01*
X209109819Y-86800000D02*
X209252676Y-86704762D01*
X209252676Y-86704762D02*
X209347914Y-86609524D01*
X209347914Y-86609524D02*
X209395533Y-86514286D01*
X212534819Y-48873333D02*
X212058628Y-48540000D01*
X212534819Y-48301905D02*
X211534819Y-48301905D01*
X211534819Y-48301905D02*
X211534819Y-48682857D01*
X211534819Y-48682857D02*
X211582438Y-48778095D01*
X211582438Y-48778095D02*
X211630057Y-48825714D01*
X211630057Y-48825714D02*
X211725295Y-48873333D01*
X211725295Y-48873333D02*
X211868152Y-48873333D01*
X211868152Y-48873333D02*
X211963390Y-48825714D01*
X211963390Y-48825714D02*
X212011009Y-48778095D01*
X212011009Y-48778095D02*
X212058628Y-48682857D01*
X212058628Y-48682857D02*
X212058628Y-48301905D01*
X211534819Y-49778095D02*
X211534819Y-49301905D01*
X211534819Y-49301905D02*
X212011009Y-49254286D01*
X212011009Y-49254286D02*
X211963390Y-49301905D01*
X211963390Y-49301905D02*
X211915771Y-49397143D01*
X211915771Y-49397143D02*
X211915771Y-49635238D01*
X211915771Y-49635238D02*
X211963390Y-49730476D01*
X211963390Y-49730476D02*
X212011009Y-49778095D01*
X212011009Y-49778095D02*
X212106247Y-49825714D01*
X212106247Y-49825714D02*
X212344342Y-49825714D01*
X212344342Y-49825714D02*
X212439580Y-49778095D01*
X212439580Y-49778095D02*
X212487200Y-49730476D01*
X212487200Y-49730476D02*
X212534819Y-49635238D01*
X212534819Y-49635238D02*
X212534819Y-49397143D01*
X212534819Y-49397143D02*
X212487200Y-49301905D01*
X212487200Y-49301905D02*
X212439580Y-49254286D01*
D11*
X213080000Y-56080000D02*
X213080000Y-59920000D01*
X214920000Y-56080000D02*
X214920000Y-59920000D01*
X221430000Y-88270000D02*
X221430000Y-83730000D01*
X221445000Y-83730000D02*
X221430000Y-83730000D01*
X221445000Y-88270000D02*
X221430000Y-88270000D01*
X223570000Y-83730000D02*
X223555000Y-83730000D01*
X223570000Y-88270000D02*
X223555000Y-88270000D01*
X223570000Y-88270000D02*
X223570000Y-83730000D01*
X232430000Y-89270000D02*
X232430000Y-84730000D01*
X232445000Y-84730000D02*
X232430000Y-84730000D01*
X232445000Y-89270000D02*
X232430000Y-89270000D01*
X234570000Y-84730000D02*
X234555000Y-84730000D01*
X234570000Y-89270000D02*
X234555000Y-89270000D01*
X234570000Y-89270000D02*
X234570000Y-84730000D01*
X209930000Y-55730000D02*
X209930000Y-60270000D01*
X209930000Y-55730000D02*
X209945000Y-55730000D01*
X209930000Y-60270000D02*
X209945000Y-60270000D01*
X212055000Y-55730000D02*
X212070000Y-55730000D01*
X212055000Y-60270000D02*
X212070000Y-60270000D01*
X212070000Y-55730000D02*
X212070000Y-60270000D01*
D12*
X238300000Y-86150000D02*
X238900000Y-86150000D01*
X239500000Y-75250000D02*
X252500000Y-75250000D01*
X239500000Y-75550000D02*
X239500000Y-75250000D01*
X239500000Y-84250000D02*
X239500000Y-79250000D01*
X239500000Y-88250000D02*
X239500000Y-87950000D01*
X252500000Y-75250000D02*
X252500000Y-75550000D01*
X252500000Y-79250000D02*
X252500000Y-84250000D01*
X252500000Y-87950000D02*
X252500000Y-88250000D01*
X252500000Y-88250000D02*
X239500000Y-88250000D01*
X253000000Y-86250000D02*
X253600000Y-86250000D01*
X253300000Y-86550000D02*
X253300000Y-85950000D01*
D11*
X209930000Y-46730000D02*
X209930000Y-51270000D01*
X209930000Y-46730000D02*
X209945000Y-46730000D01*
X209930000Y-51270000D02*
X209945000Y-51270000D01*
X212055000Y-46730000D02*
X212070000Y-46730000D01*
X212055000Y-51270000D02*
X212070000Y-51270000D01*
X212070000Y-46730000D02*
X212070000Y-51270000D01*
X235800000Y-43130000D02*
X235800000Y-63570000D01*
X235800000Y-63570000D02*
X242270000Y-63570000D01*
X238035000Y-43130000D02*
X235800000Y-43130000D01*
X242270000Y-43130000D02*
X240035000Y-43130000D01*
X242270000Y-63570000D02*
X242270000Y-43130000D01*
X240035000Y-43130000D02*
G75*
G02*
X238035000Y-43130000I-1000000J0D01*
G01*
X210655000Y-88220000D02*
X210655000Y-84380000D01*
X212495000Y-88220000D02*
X212495000Y-84380000D01*
X213080000Y-50960000D02*
X213080000Y-47120000D01*
X214920000Y-50960000D02*
X214920000Y-47120000D01*
%LPC*%
D13*
X243790000Y-65000000D03*
D14*
X238710000Y-65000000D03*
D15*
X229775000Y-82500000D03*
D16*
X229775000Y-85040000D03*
X229775000Y-87580000D03*
X229775000Y-90120000D03*
X237395000Y-90120000D03*
X237395000Y-87580000D03*
X237395000Y-85040000D03*
X237395000Y-82500000D03*
D17*
X217000000Y-78500000D03*
X222000000Y-78500000D03*
X254500000Y-45920000D03*
X254500000Y-51000000D03*
D18*
X254500000Y-48460000D03*
X221235000Y-72000000D03*
D17*
X223775000Y-72000000D03*
X218695000Y-72000000D03*
D19*
X238025000Y-67750000D03*
X244525000Y-67750000D03*
X238025000Y-72250000D03*
X244525000Y-72250000D03*
D15*
X231115000Y-44470000D03*
D16*
X231115000Y-47010000D03*
X231115000Y-49550000D03*
X231115000Y-52090000D03*
X231115000Y-54630000D03*
X231115000Y-57170000D03*
X231115000Y-59710000D03*
X231115000Y-62250000D03*
X241275000Y-62250000D03*
X241275000Y-59710000D03*
X241275000Y-57170000D03*
X241275000Y-54630000D03*
X241275000Y-52090000D03*
X241275000Y-49550000D03*
X241275000Y-47010000D03*
X241275000Y-44470000D03*
D19*
X228525000Y-67750000D03*
X235025000Y-67750000D03*
X228525000Y-72250000D03*
X235025000Y-72250000D03*
D18*
X247500000Y-48500000D03*
D17*
X247500000Y-51040000D03*
X247500000Y-45960000D03*
D20*
X221460000Y-53000000D03*
D21*
X224000000Y-53000000D03*
X226540000Y-53000000D03*
D18*
X251000000Y-48460000D03*
D17*
X251000000Y-51000000D03*
X251000000Y-45920000D03*
D13*
X221460000Y-48500000D03*
D14*
X226540000Y-48500000D03*
D19*
X207525000Y-67750000D03*
X214025000Y-67750000D03*
X207525000Y-72250000D03*
X214025000Y-72250000D03*
D20*
X221420000Y-61000000D03*
D21*
X223960000Y-61000000D03*
X226500000Y-61000000D03*
D19*
X247250000Y-56750000D03*
X253750000Y-56750000D03*
X247250000Y-61250000D03*
X253750000Y-61250000D03*
D15*
X207775000Y-82500000D03*
D16*
X207775000Y-85040000D03*
X207775000Y-87580000D03*
X207775000Y-90120000D03*
X215395000Y-90120000D03*
X215395000Y-87580000D03*
X215395000Y-85040000D03*
X215395000Y-82500000D03*
D22*
X223975000Y-65200000D03*
X221475000Y-67700000D03*
X218975000Y-65200000D03*
D20*
X221460000Y-45000000D03*
D21*
X224000000Y-45000000D03*
X226540000Y-45000000D03*
D13*
X216960000Y-75000000D03*
D14*
X222040000Y-75000000D03*
D13*
X213457183Y-78000000D03*
D14*
X208377183Y-78000000D03*
D19*
X247525000Y-67750000D03*
X254025000Y-67750000D03*
X247525000Y-72250000D03*
X254025000Y-72250000D03*
D13*
X221460000Y-57000000D03*
D14*
X226540000Y-57000000D03*
D17*
X237750000Y-78750000D03*
X232750000Y-78750000D03*
D15*
X207175000Y-44430000D03*
D16*
X207175000Y-46970000D03*
X207175000Y-49510000D03*
X207175000Y-52050000D03*
X207175000Y-54590000D03*
X207175000Y-57130000D03*
X207175000Y-59670000D03*
X207175000Y-62210000D03*
X217335000Y-62210000D03*
X217335000Y-59670000D03*
X217335000Y-57130000D03*
X217335000Y-54590000D03*
X217335000Y-52050000D03*
X217335000Y-49510000D03*
X217335000Y-46970000D03*
X217335000Y-44430000D03*
D13*
X225377183Y-77500000D03*
D14*
X230457183Y-77500000D03*
D18*
X250250000Y-90250000D03*
D17*
X247710000Y-90250000D03*
X252790000Y-90250000D03*
D15*
X218775000Y-82500000D03*
D16*
X218775000Y-85040000D03*
X218775000Y-87580000D03*
X218775000Y-90120000D03*
X226395000Y-90120000D03*
X226395000Y-87580000D03*
X226395000Y-85040000D03*
X226395000Y-82500000D03*
D13*
X229460000Y-65000000D03*
D14*
X234540000Y-65000000D03*
D13*
X232710000Y-76000000D03*
D14*
X237790000Y-76000000D03*
D23*
X254000000Y-77000000D03*
D24*
X254000000Y-79000000D03*
D13*
X248420000Y-65000000D03*
D14*
X253500000Y-65000000D03*
D23*
X240500000Y-90250000D03*
D24*
X242500000Y-90250000D03*
D13*
X214000000Y-60540000D03*
D14*
X214000000Y-55460000D03*
D17*
X222500000Y-83500000D03*
X222500000Y-88500000D03*
X233500000Y-84500000D03*
X233500000Y-89500000D03*
X211000000Y-60500000D03*
X211000000Y-55500000D03*
D25*
X251700000Y-77400000D03*
X240300000Y-77400000D03*
X240300000Y-86100000D03*
X251700000Y-86100000D03*
D17*
X211000000Y-51500000D03*
X211000000Y-46500000D03*
D15*
X244115000Y-44460000D03*
D16*
X244115000Y-47000000D03*
X244115000Y-49540000D03*
X244115000Y-52080000D03*
X244115000Y-54620000D03*
X244115000Y-57160000D03*
X244115000Y-59700000D03*
X244115000Y-62240000D03*
X233955000Y-62240000D03*
X233955000Y-59700000D03*
X233955000Y-57160000D03*
X233955000Y-54620000D03*
X233955000Y-52080000D03*
X233955000Y-49540000D03*
X233955000Y-47000000D03*
X233955000Y-44460000D03*
D13*
X211575000Y-83760000D03*
D14*
X211575000Y-88840000D03*
D13*
X214000000Y-46500000D03*
D14*
X214000000Y-51580000D03*
%LPD*%
M02*
