%TF.GenerationSoftware,KiCad,Pcbnew,8.0.5*%
%TF.CreationDate,2025-10-09T21:52:12-05:00*%
%TF.ProjectId,ELEC 240 Project,454c4543-2032-4343-9020-50726f6a6563,rev?*%
%TF.SameCoordinates,Original*%
%TF.FileFunction,Drillmap*%
%TF.FilePolarity,Positive*%
%FSLAX45Y45*%
G04 Gerber Fmt 4.5, Leading zero omitted, Abs format (unit mm)*
G04 Created by KiCad (PCBNEW 8.0.5) date 2025-10-09 21:52:12*
%MOMM*%
%LPD*%
G01*
G04 APERTURE LIST*
%ADD10C,0.050000*%
%ADD11C,0.200000*%
G04 APERTURE END LIST*
D10*
X20550000Y-4250000D02*
X25630000Y-4250000D01*
X25630000Y-9330000D01*
X20550000Y-9330000D01*
X20550000Y-4250000D01*
D11*
X20808277Y-9643984D02*
X20808277Y-9443984D01*
X20808277Y-9443984D02*
X20855896Y-9443984D01*
X20855896Y-9443984D02*
X20884467Y-9453508D01*
X20884467Y-9453508D02*
X20903515Y-9472555D01*
X20903515Y-9472555D02*
X20913039Y-9491603D01*
X20913039Y-9491603D02*
X20922563Y-9529698D01*
X20922563Y-9529698D02*
X20922563Y-9558270D01*
X20922563Y-9558270D02*
X20913039Y-9596365D01*
X20913039Y-9596365D02*
X20903515Y-9615412D01*
X20903515Y-9615412D02*
X20884467Y-9634460D01*
X20884467Y-9634460D02*
X20855896Y-9643984D01*
X20855896Y-9643984D02*
X20808277Y-9643984D01*
X21008277Y-9643984D02*
X21008277Y-9510650D01*
X21008277Y-9548746D02*
X21017801Y-9529698D01*
X21017801Y-9529698D02*
X21027324Y-9520174D01*
X21027324Y-9520174D02*
X21046372Y-9510650D01*
X21046372Y-9510650D02*
X21065420Y-9510650D01*
X21132086Y-9643984D02*
X21132086Y-9510650D01*
X21132086Y-9443984D02*
X21122563Y-9453508D01*
X21122563Y-9453508D02*
X21132086Y-9463031D01*
X21132086Y-9463031D02*
X21141610Y-9453508D01*
X21141610Y-9453508D02*
X21132086Y-9443984D01*
X21132086Y-9443984D02*
X21132086Y-9463031D01*
X21255896Y-9643984D02*
X21236848Y-9634460D01*
X21236848Y-9634460D02*
X21227324Y-9615412D01*
X21227324Y-9615412D02*
X21227324Y-9443984D01*
X21360658Y-9643984D02*
X21341610Y-9634460D01*
X21341610Y-9634460D02*
X21332086Y-9615412D01*
X21332086Y-9615412D02*
X21332086Y-9443984D01*
X21589229Y-9643984D02*
X21589229Y-9443984D01*
X21589229Y-9443984D02*
X21655896Y-9586841D01*
X21655896Y-9586841D02*
X21722563Y-9443984D01*
X21722563Y-9443984D02*
X21722563Y-9643984D01*
X21903515Y-9643984D02*
X21903515Y-9539222D01*
X21903515Y-9539222D02*
X21893991Y-9520174D01*
X21893991Y-9520174D02*
X21874944Y-9510650D01*
X21874944Y-9510650D02*
X21836848Y-9510650D01*
X21836848Y-9510650D02*
X21817801Y-9520174D01*
X21903515Y-9634460D02*
X21884467Y-9643984D01*
X21884467Y-9643984D02*
X21836848Y-9643984D01*
X21836848Y-9643984D02*
X21817801Y-9634460D01*
X21817801Y-9634460D02*
X21808277Y-9615412D01*
X21808277Y-9615412D02*
X21808277Y-9596365D01*
X21808277Y-9596365D02*
X21817801Y-9577317D01*
X21817801Y-9577317D02*
X21836848Y-9567793D01*
X21836848Y-9567793D02*
X21884467Y-9567793D01*
X21884467Y-9567793D02*
X21903515Y-9558270D01*
X21998753Y-9510650D02*
X21998753Y-9710650D01*
X21998753Y-9520174D02*
X22017801Y-9510650D01*
X22017801Y-9510650D02*
X22055896Y-9510650D01*
X22055896Y-9510650D02*
X22074944Y-9520174D01*
X22074944Y-9520174D02*
X22084467Y-9529698D01*
X22084467Y-9529698D02*
X22093991Y-9548746D01*
X22093991Y-9548746D02*
X22093991Y-9605889D01*
X22093991Y-9605889D02*
X22084467Y-9624936D01*
X22084467Y-9624936D02*
X22074944Y-9634460D01*
X22074944Y-9634460D02*
X22055896Y-9643984D01*
X22055896Y-9643984D02*
X22017801Y-9643984D01*
X22017801Y-9643984D02*
X21998753Y-9634460D01*
X22179705Y-9624936D02*
X22189229Y-9634460D01*
X22189229Y-9634460D02*
X22179705Y-9643984D01*
X22179705Y-9643984D02*
X22170182Y-9634460D01*
X22170182Y-9634460D02*
X22179705Y-9624936D01*
X22179705Y-9624936D02*
X22179705Y-9643984D01*
X22179705Y-9520174D02*
X22189229Y-9529698D01*
X22189229Y-9529698D02*
X22179705Y-9539222D01*
X22179705Y-9539222D02*
X22170182Y-9529698D01*
X22170182Y-9529698D02*
X22179705Y-9520174D01*
X22179705Y-9520174D02*
X22179705Y-9539222D01*
M02*
