G04 #@! TF.GenerationSoftware,KiCad,Pcbnew,8.0.5*
G04 #@! TF.CreationDate,2025-10-09T21:50:06-05:00*
G04 #@! TF.ProjectId,ELEC 240 Project,454c4543-2032-4343-9020-50726f6a6563,rev?*
G04 #@! TF.SameCoordinates,Original*
G04 #@! TF.FileFunction,Copper,L1,Top*
G04 #@! TF.FilePolarity,Positive*
%FSLAX46Y46*%
G04 Gerber Fmt 4.6, Leading zero omitted, Abs format (unit mm)*
G04 Created by KiCad (PCBNEW 8.0.5) date 2025-10-09 21:50:06*
%MOMM*%
%LPD*%
G01*
G04 APERTURE LIST*
G04 #@! TA.AperFunction,ComponentPad*
%ADD10C,1.400000*%
G04 #@! TD*
G04 #@! TA.AperFunction,ComponentPad*
%ADD11O,1.400000X1.400000*%
G04 #@! TD*
G04 #@! TA.AperFunction,ComponentPad*
%ADD12R,1.600000X1.600000*%
G04 #@! TD*
G04 #@! TA.AperFunction,ComponentPad*
%ADD13O,1.600000X1.600000*%
G04 #@! TD*
G04 #@! TA.AperFunction,ComponentPad*
%ADD14C,1.600000*%
G04 #@! TD*
G04 #@! TA.AperFunction,ComponentPad*
%ADD15R,1.500000X1.500000*%
G04 #@! TD*
G04 #@! TA.AperFunction,ComponentPad*
%ADD16C,2.000000*%
G04 #@! TD*
G04 #@! TA.AperFunction,ComponentPad*
%ADD17R,1.700000X1.700000*%
G04 #@! TD*
G04 #@! TA.AperFunction,ComponentPad*
%ADD18O,1.700000X1.700000*%
G04 #@! TD*
G04 #@! TA.AperFunction,ComponentPad*
%ADD19C,2.340000*%
G04 #@! TD*
G04 #@! TA.AperFunction,ComponentPad*
%ADD20R,1.350000X1.350000*%
G04 #@! TD*
G04 #@! TA.AperFunction,ComponentPad*
%ADD21O,1.350000X1.350000*%
G04 #@! TD*
G04 #@! TA.AperFunction,Conductor*
%ADD22C,0.254000*%
G04 #@! TD*
G04 #@! TA.AperFunction,Conductor*
%ADD23C,0.500000*%
G04 #@! TD*
G04 APERTURE END LIST*
D10*
X243790000Y-65000000D03*
D11*
X238710000Y-65000000D03*
D12*
X229775000Y-82500000D03*
D13*
X229775000Y-85040000D03*
X229775000Y-87580000D03*
X229775000Y-90120000D03*
X237395000Y-90120000D03*
X237395000Y-87580000D03*
X237395000Y-85040000D03*
X237395000Y-82500000D03*
D14*
X217000000Y-78500000D03*
X222000000Y-78500000D03*
X254500000Y-45920000D03*
X254500000Y-51000000D03*
D15*
X254500000Y-48460000D03*
X221235000Y-72000000D03*
D14*
X223775000Y-72000000D03*
X218695000Y-72000000D03*
D16*
X238025000Y-67750000D03*
X244525000Y-67750000D03*
X238025000Y-72250000D03*
X244525000Y-72250000D03*
D12*
X231115000Y-44470000D03*
D13*
X231115000Y-47010000D03*
X231115000Y-49550000D03*
X231115000Y-52090000D03*
X231115000Y-54630000D03*
X231115000Y-57170000D03*
X231115000Y-59710000D03*
X231115000Y-62250000D03*
X241275000Y-62250000D03*
X241275000Y-59710000D03*
X241275000Y-57170000D03*
X241275000Y-54630000D03*
X241275000Y-52090000D03*
X241275000Y-49550000D03*
X241275000Y-47010000D03*
X241275000Y-44470000D03*
D16*
X228525000Y-67750000D03*
X235025000Y-67750000D03*
X228525000Y-72250000D03*
X235025000Y-72250000D03*
D15*
X247500000Y-48500000D03*
D14*
X247500000Y-51040000D03*
X247500000Y-45960000D03*
D17*
X221460000Y-53000000D03*
D18*
X224000000Y-53000000D03*
X226540000Y-53000000D03*
D15*
X251000000Y-48460000D03*
D14*
X251000000Y-51000000D03*
X251000000Y-45920000D03*
D10*
X221460000Y-48500000D03*
D11*
X226540000Y-48500000D03*
D16*
X207525000Y-67750000D03*
X214025000Y-67750000D03*
X207525000Y-72250000D03*
X214025000Y-72250000D03*
D17*
X221420000Y-61000000D03*
D18*
X223960000Y-61000000D03*
X226500000Y-61000000D03*
D16*
X247250000Y-56750000D03*
X253750000Y-56750000D03*
X247250000Y-61250000D03*
X253750000Y-61250000D03*
D12*
X207775000Y-82500000D03*
D13*
X207775000Y-85040000D03*
X207775000Y-87580000D03*
X207775000Y-90120000D03*
X215395000Y-90120000D03*
X215395000Y-87580000D03*
X215395000Y-85040000D03*
X215395000Y-82500000D03*
D19*
X223975000Y-65200000D03*
X221475000Y-67700000D03*
X218975000Y-65200000D03*
D17*
X221460000Y-45000000D03*
D18*
X224000000Y-45000000D03*
X226540000Y-45000000D03*
D10*
X216960000Y-75000000D03*
D11*
X222040000Y-75000000D03*
D10*
X213457183Y-78000000D03*
D11*
X208377183Y-78000000D03*
D16*
X247525000Y-67750000D03*
X254025000Y-67750000D03*
X247525000Y-72250000D03*
X254025000Y-72250000D03*
D10*
X221460000Y-57000000D03*
D11*
X226540000Y-57000000D03*
D14*
X237750000Y-78750000D03*
X232750000Y-78750000D03*
D12*
X207175000Y-44430000D03*
D13*
X207175000Y-46970000D03*
X207175000Y-49510000D03*
X207175000Y-52050000D03*
X207175000Y-54590000D03*
X207175000Y-57130000D03*
X207175000Y-59670000D03*
X207175000Y-62210000D03*
X217335000Y-62210000D03*
X217335000Y-59670000D03*
X217335000Y-57130000D03*
X217335000Y-54590000D03*
X217335000Y-52050000D03*
X217335000Y-49510000D03*
X217335000Y-46970000D03*
X217335000Y-44430000D03*
D10*
X225377183Y-77500000D03*
D11*
X230457183Y-77500000D03*
D15*
X250250000Y-90250000D03*
D14*
X247710000Y-90250000D03*
X252790000Y-90250000D03*
D12*
X218775000Y-82500000D03*
D13*
X218775000Y-85040000D03*
X218775000Y-87580000D03*
X218775000Y-90120000D03*
X226395000Y-90120000D03*
X226395000Y-87580000D03*
X226395000Y-85040000D03*
X226395000Y-82500000D03*
D10*
X229460000Y-65000000D03*
D11*
X234540000Y-65000000D03*
D10*
X232710000Y-76000000D03*
D11*
X237790000Y-76000000D03*
D20*
X254000000Y-77000000D03*
D21*
X254000000Y-79000000D03*
D10*
X248420000Y-65000000D03*
D11*
X253500000Y-65000000D03*
D20*
X240500000Y-90250000D03*
D21*
X242500000Y-90250000D03*
D10*
X214000000Y-60540000D03*
D11*
X214000000Y-55460000D03*
D14*
X222500000Y-83500000D03*
X222500000Y-88500000D03*
X233500000Y-84500000D03*
X233500000Y-89500000D03*
X211000000Y-60500000D03*
X211000000Y-55500000D03*
X211000000Y-51500000D03*
X211000000Y-46500000D03*
D12*
X244115000Y-44460000D03*
D13*
X244115000Y-47000000D03*
X244115000Y-49540000D03*
X244115000Y-52080000D03*
X244115000Y-54620000D03*
X244115000Y-57160000D03*
X244115000Y-59700000D03*
X244115000Y-62240000D03*
X233955000Y-62240000D03*
X233955000Y-59700000D03*
X233955000Y-57160000D03*
X233955000Y-54620000D03*
X233955000Y-52080000D03*
X233955000Y-49540000D03*
X233955000Y-47000000D03*
X233955000Y-44460000D03*
D10*
X211575000Y-83760000D03*
D11*
X211575000Y-88840000D03*
D10*
X214000000Y-46500000D03*
D11*
X214000000Y-51580000D03*
D22*
X228594000Y-80906000D02*
X228594000Y-86399000D01*
X232710000Y-76790000D02*
X228594000Y-80906000D01*
X232710000Y-76000000D02*
X232710000Y-76790000D01*
X228594000Y-86399000D02*
X229775000Y-87580000D01*
X225460000Y-57000000D02*
X226540000Y-57000000D01*
X221460000Y-53000000D02*
X225460000Y-57000000D01*
X225873000Y-43127000D02*
X224000000Y-45000000D01*
X245798370Y-43127000D02*
X225873000Y-43127000D01*
X247500000Y-44828630D02*
X245798370Y-43127000D01*
X247500000Y-45960000D02*
X247500000Y-44828630D01*
X228525000Y-66025000D02*
X228525000Y-67750000D01*
X226149000Y-63649000D02*
X228525000Y-66025000D01*
X216119051Y-63649000D02*
X226149000Y-63649000D01*
X214000000Y-61529949D02*
X216119051Y-63649000D01*
X214000000Y-60540000D02*
X214000000Y-61529949D01*
X225699000Y-62739000D02*
X223960000Y-61000000D01*
X230480909Y-61019091D02*
X228761000Y-62739000D01*
X240044091Y-61019091D02*
X230480909Y-61019091D01*
X241275000Y-62250000D02*
X240044091Y-61019091D01*
X228761000Y-62739000D02*
X225699000Y-62739000D01*
D23*
X242000000Y-75000000D02*
X243000000Y-74000000D01*
X239697500Y-82500000D02*
X242000000Y-80197500D01*
X237395000Y-82500000D02*
X239697500Y-82500000D01*
X242000000Y-80197500D02*
X242000000Y-75000000D01*
D22*
X220229000Y-55769000D02*
X220229000Y-49731000D01*
X221460000Y-57000000D02*
X220229000Y-55769000D01*
X220229000Y-49731000D02*
X221460000Y-48500000D01*
X232784000Y-58529000D02*
X233955000Y-59700000D01*
X230625813Y-58529000D02*
X232784000Y-58529000D01*
X229800763Y-59354050D02*
X230625813Y-58529000D01*
X229800763Y-60519000D02*
X229800763Y-59354050D01*
X228088763Y-62231000D02*
X229800763Y-60519000D01*
X225269000Y-61509897D02*
X225990103Y-62231000D01*
X225269000Y-60490103D02*
X225269000Y-61509897D01*
X225990103Y-62231000D02*
X228088763Y-62231000D01*
X224547897Y-59769000D02*
X225269000Y-60490103D01*
X217434000Y-59769000D02*
X224547897Y-59769000D01*
X217335000Y-59670000D02*
X217434000Y-59769000D01*
X227621000Y-59879000D02*
X226500000Y-61000000D01*
X227621000Y-54081000D02*
X227621000Y-59879000D01*
X226540000Y-53000000D02*
X227621000Y-54081000D01*
X241265000Y-59700000D02*
X241275000Y-59710000D01*
X233955000Y-59700000D02*
X241265000Y-59700000D01*
X233965000Y-57170000D02*
X233955000Y-57160000D01*
X241275000Y-57170000D02*
X233965000Y-57170000D01*
X236214000Y-88939000D02*
X237395000Y-90120000D01*
X236214000Y-80286000D02*
X236214000Y-88939000D01*
X237750000Y-78750000D02*
X236214000Y-80286000D01*
D23*
X231500000Y-87500000D02*
X233500000Y-89500000D01*
X231500000Y-84225000D02*
X231500000Y-87500000D01*
X229775000Y-82500000D02*
X231500000Y-84225000D01*
D22*
X241265000Y-57160000D02*
X241275000Y-57170000D01*
X233965000Y-59710000D02*
X233955000Y-59700000D01*
D23*
X228877183Y-74000000D02*
X251000000Y-74000000D01*
X251000000Y-74000000D02*
X254000000Y-77000000D01*
X225377183Y-77500000D02*
X228877183Y-74000000D01*
D22*
X228086000Y-79871183D02*
X228086000Y-83349000D01*
X228086000Y-83349000D02*
X226395000Y-85040000D01*
X230457183Y-77500000D02*
X228086000Y-79871183D01*
D23*
X225000000Y-91500000D02*
X228395000Y-91500000D01*
X225000000Y-83895000D02*
X225000000Y-91500000D01*
X226395000Y-82500000D02*
X225000000Y-83895000D01*
X216895000Y-92000000D02*
X218775000Y-90120000D01*
X207775000Y-90120000D02*
X209655000Y-92000000D01*
X209655000Y-92000000D02*
X216895000Y-92000000D01*
X242355000Y-64000000D02*
X244115000Y-62240000D01*
X232865000Y-64000000D02*
X242355000Y-64000000D01*
X231115000Y-62250000D02*
X232865000Y-64000000D01*
D22*
X211000000Y-60500000D02*
X218200000Y-67700000D01*
X218200000Y-67700000D02*
X221475000Y-67700000D01*
X212500000Y-63265000D02*
X221235000Y-72000000D01*
X209819000Y-60010813D02*
X209819000Y-61819000D01*
X212699813Y-57130000D02*
X209819000Y-60010813D01*
X217335000Y-57130000D02*
X212699813Y-57130000D01*
X209819000Y-61819000D02*
X211265000Y-63265000D01*
X211265000Y-63265000D02*
X212500000Y-63265000D01*
D23*
X212696000Y-45196000D02*
X214000000Y-46500000D01*
X208500000Y-47155865D02*
X210459865Y-45196000D01*
X210459865Y-45196000D02*
X212696000Y-45196000D01*
X209029000Y-67127022D02*
X208500000Y-66598022D01*
X208500000Y-66598022D02*
X208500000Y-47155865D01*
X209029000Y-77348183D02*
X209029000Y-67127022D01*
X208377183Y-78000000D02*
X209029000Y-77348183D01*
D22*
X248500000Y-63500000D02*
X245290000Y-63500000D01*
X251000000Y-61000000D02*
X248500000Y-63500000D01*
X245290000Y-63500000D02*
X243790000Y-65000000D01*
X251000000Y-51000000D02*
X251000000Y-61000000D01*
D23*
X248000000Y-62869000D02*
X244744000Y-62869000D01*
X248754000Y-62115000D02*
X248000000Y-62869000D01*
X244744000Y-62869000D02*
X244115000Y-62240000D01*
X248754000Y-58254000D02*
X248754000Y-62115000D01*
X247250000Y-56750000D02*
X248754000Y-58254000D01*
D22*
X242466000Y-61059000D02*
X241275000Y-62250000D01*
X244441000Y-61059000D02*
X242466000Y-61059000D01*
X245500000Y-60000000D02*
X244441000Y-61059000D01*
X245500000Y-51369813D02*
X245500000Y-60000000D01*
X247238813Y-49631000D02*
X245500000Y-51369813D01*
X248500000Y-49631000D02*
X247238813Y-49631000D01*
X248631000Y-49500000D02*
X248500000Y-49631000D01*
X248631000Y-48369000D02*
X248631000Y-49500000D01*
X249671000Y-47329000D02*
X248631000Y-48369000D01*
X253091000Y-47329000D02*
X249671000Y-47329000D01*
X254500000Y-45920000D02*
X253091000Y-47329000D01*
X249873000Y-66369000D02*
X236406000Y-66369000D01*
X251420813Y-49591000D02*
X252181000Y-50351187D01*
X250080370Y-49591000D02*
X251420813Y-49591000D01*
X248631370Y-51040000D02*
X250080370Y-49591000D01*
X252181000Y-50351187D02*
X252181000Y-64061000D01*
X236406000Y-66369000D02*
X235025000Y-67750000D01*
X247500000Y-51040000D02*
X248631370Y-51040000D01*
X252181000Y-64061000D02*
X249873000Y-66369000D01*
X247525000Y-67750000D02*
X254025000Y-67750000D01*
X238025000Y-67750000D02*
X244525000Y-67750000D01*
X228525000Y-67750000D02*
X235025000Y-67750000D01*
X212835000Y-87580000D02*
X211575000Y-88840000D01*
X215395000Y-87580000D02*
X212835000Y-87580000D01*
X215395000Y-85040000D02*
X215395000Y-87580000D01*
X213457183Y-79357817D02*
X207775000Y-85040000D01*
X213457183Y-78000000D02*
X213457183Y-79357817D01*
X213457183Y-78000000D02*
X213500000Y-78000000D01*
X214025000Y-77432183D02*
X213457183Y-78000000D01*
X214025000Y-72250000D02*
X214025000Y-77432183D01*
X216000000Y-60875000D02*
X217335000Y-62210000D01*
X216000000Y-59334813D02*
X216000000Y-60875000D01*
X216845813Y-58489000D02*
X216000000Y-59334813D01*
X217824187Y-58489000D02*
X216845813Y-58489000D01*
X218516000Y-57797187D02*
X217824187Y-58489000D01*
X217000000Y-50869000D02*
X217824187Y-50869000D01*
X217824187Y-50869000D02*
X218516000Y-51560813D01*
X216154000Y-48846000D02*
X216154000Y-50023000D01*
X218516000Y-51560813D02*
X218516000Y-57797187D01*
X216671000Y-48329000D02*
X216154000Y-48846000D01*
X216154000Y-50023000D02*
X217000000Y-50869000D01*
X217835764Y-48329000D02*
X216671000Y-48329000D01*
X218516000Y-47648764D02*
X217835764Y-48329000D01*
X218516000Y-45484000D02*
X218516000Y-47648764D01*
X220231000Y-43769000D02*
X218516000Y-45484000D01*
X224000000Y-45000000D02*
X222769000Y-43769000D01*
X222769000Y-43769000D02*
X220231000Y-43769000D01*
X220819000Y-74681000D02*
X222366000Y-73134000D01*
X222366000Y-73134000D02*
X222366000Y-68591000D01*
X222366000Y-68591000D02*
X221475000Y-67700000D01*
X218775000Y-85040000D02*
X220819000Y-82996000D01*
X220819000Y-82996000D02*
X220819000Y-74681000D01*
X223775000Y-83895187D02*
X223775000Y-72000000D01*
X220090187Y-87580000D02*
X223775000Y-83895187D01*
X218775000Y-87580000D02*
X220090187Y-87580000D01*
X246460000Y-91500000D02*
X247710000Y-90250000D01*
X240500000Y-90250000D02*
X241750000Y-91500000D01*
X241750000Y-91500000D02*
X246460000Y-91500000D01*
D23*
X216550000Y-52050000D02*
X217335000Y-52050000D01*
X211000000Y-46500000D02*
X216550000Y-52050000D01*
X220155000Y-91500000D02*
X228395000Y-91500000D01*
X215265000Y-46500000D02*
X217335000Y-44430000D01*
X211240000Y-83760000D02*
X211575000Y-83760000D01*
X214135000Y-83760000D02*
X215395000Y-82500000D01*
X244525000Y-72250000D02*
X238025000Y-72250000D01*
X235025000Y-72250000D02*
X238025000Y-72250000D01*
X214000000Y-46500000D02*
X215265000Y-46500000D01*
X207775000Y-90120000D02*
X209500000Y-88395000D01*
X235025000Y-72250000D02*
X228525000Y-72250000D01*
X209500000Y-85500000D02*
X211240000Y-83760000D01*
X209500000Y-88395000D02*
X209500000Y-85500000D01*
X211575000Y-83760000D02*
X214135000Y-83760000D01*
X218775000Y-90120000D02*
X220155000Y-91500000D01*
X225377183Y-77500000D02*
X226395000Y-78517817D01*
X228395000Y-91500000D02*
X229775000Y-90120000D01*
X226395000Y-78517817D02*
X226395000Y-82500000D01*
X213885000Y-55500000D02*
X211000000Y-55500000D01*
X232750000Y-65000000D02*
X234540000Y-65000000D01*
X231115000Y-63365000D02*
X232750000Y-65000000D01*
X229775000Y-81725000D02*
X229775000Y-82500000D01*
X234540000Y-65000000D02*
X238710000Y-65000000D01*
X232750000Y-78750000D02*
X229775000Y-81725000D01*
X217335000Y-52050000D02*
X213885000Y-55500000D01*
X231115000Y-62250000D02*
X231115000Y-63365000D01*
X244525000Y-72250000D02*
X247525000Y-72250000D01*
X247525000Y-72250000D02*
X254025000Y-72250000D01*
D22*
X218466370Y-49510000D02*
X217335000Y-49510000D01*
X225309000Y-45431897D02*
X223321897Y-47419000D01*
X225309000Y-44490103D02*
X225309000Y-45431897D01*
X223321897Y-47419000D02*
X220557370Y-47419000D01*
X227049897Y-43769000D02*
X226030103Y-43769000D01*
X226030103Y-43769000D02*
X225309000Y-44490103D01*
X228931897Y-45651000D02*
X227049897Y-43769000D01*
X244651000Y-45651000D02*
X228931897Y-45651000D01*
X247500000Y-48500000D02*
X244651000Y-45651000D01*
X220557370Y-47419000D02*
X218466370Y-49510000D01*
M02*
